<?xml version="1.0" encoding="UTF-8" standalone="no"?>
<!-- Created with Inkscape (http://www.inkscape.org/) -->

<svg
   xmlns:dc="http://purl.org/dc/elements/1.1/"
   xmlns:cc="http://creativecommons.org/ns#"
   xmlns:rdf="http://www.w3.org/1999/02/22-rdf-syntax-ns#"
   xmlns:svg="http://www.w3.org/2000/svg"
   xmlns="http://www.w3.org/2000/svg"
   xmlns:sodipodi="http://sodipodi.sourceforge.net/DTD/sodipodi-0.dtd"
   xmlns:inkscape="http://www.inkscape.org/namespaces/inkscape"
   width="96"
   height="96"
   id="svg4874"
   version="1.1"
   inkscape:version="0.91 r13725"
   viewBox="0 0 96 96.000001"
   sodipodi:docname="contact-stop.svg">
  <defs
     id="defs4876" />
  <sodipodi:namedview
     id="base"
     pagecolor="#ffffff"
     bordercolor="#666666"
     borderopacity="1.0"
     inkscape:pageopacity="0.0"
     inkscape:pageshadow="2"
     inkscape:zoom="2.1953122"
     inkscape:cx="114.88834"
     inkscape:cy="63.865835"
     inkscape:document-units="px"
     inkscape:current-layer="layer1"
     showgrid="true"
     showborder="true"
     fit-margin-top="0"
     fit-margin-left="0"
     fit-margin-right="0"
     fit-margin-bottom="0"
     inkscape:snap-bbox="true"
     inkscape:bbox-paths="true"
     inkscape:bbox-nodes="true"
     inkscape:snap-bbox-edge-midpoints="true"
     inkscape:snap-bbox-midpoints="true"
     inkscape:object-paths="true"
     inkscape:snap-intersection-paths="true"
     inkscape:object-nodes="true"
     inkscape:snap-smooth-nodes="true"
     inkscape:snap-midpoints="true"
     inkscape:snap-object-midpoints="true"
     inkscape:snap-center="true"
     showguides="true"
     inkscape:guide-bbox="true"
     inkscape:snap-global="true"
     inkscape:snap-grids="false"
     inkscape:window-width="1305"
     inkscape:window-height="744"
     inkscape:window-x="61"
     inkscape:window-y="24"
     inkscape:window-maximized="1">
    <inkscape:grid
       type="xygrid"
       id="grid5451"
       empspacing="8" />
    <sodipodi:guide
       orientation="1,0"
       position="8,-8.0000001"
       id="guide4063" />
    <sodipodi:guide
       orientation="1,0"
       position="4,-8.0000001"
       id="guide4065" />
    <sodipodi:guide
       orientation="0,1"
       position="-8,88.000001"
       id="guide4067" />
    <sodipodi:guide
       orientation="0,1"
       position="-8,92.000001"
       id="guide4069" />
    <sodipodi:guide
       orientation="0,1"
       position="104,4"
       id="guide4071" />
    <sodipodi:guide
       orientation="0,1"
       position="-5,8.0000001"
       id="guide4073" />
    <sodipodi:guide
       orientation="1,0"
       position="88,-8.0000001"
       id="guide4077" />
    <sodipodi:guide
       orientation="0,1"
       position="-8,84.000001"
       id="guide4074" />
    <sodipodi:guide
       orientation="1,0"
       position="12,-8.0000001"
       id="guide4076" />
    <sodipodi:guide
       orientation="1,0"
       position="84,-8.0000001"
       id="guide4080" />
    <sodipodi:guide
       position="48,-8.0000001"
       orientation="1,0"
       id="guide4170" />
    <sodipodi:guide
       position="-8,48"
       orientation="0,1"
       id="guide4172" />
    <sodipodi:guide
       position="92,-8.0000001"
       orientation="1,0"
       id="guide4760" />
  </sodipodi:namedview>
  <metadata
     id="metadata4879">
    <rdf:RDF>
      <cc:Work
         rdf:about="">
        <dc:format>image/svg+xml</dc:format>
        <dc:type
           rdf:resource="http://purl.org/dc/dcmitype/StillImage" />
        <dc:title></dc:title>
      </cc:Work>
    </rdf:RDF>
  </metadata>
  <g
     inkscape:label="Layer 1"
     inkscape:groupmode="layer"
     id="layer1"
     transform="translate(67.857146,-78.50504)">
    <path
       inkscape:connector-curvature="0"
       id="path4202-6"
       d="m -37.85713,82.505039 c -2.0087,0 -3.9267,0.377671 -5.6875,1.13868 -1.7453,0.722454 -3.2956,1.785014 -4.582,3.154292 l -0.01,0.0117 -0.012,0.0117 c -1.2578,1.380693 -2.2239,3.038357 -2.9023,4.912106 l 0,0.004 c -0.6892,1.87265 -1.0195,3.916331 -1.0195,6.099607 0,2.217027 0.3299,4.284277 1.0234,6.164067 0.68,1.84284 1.6478,3.47859 2.9004,4.85351 l 0.012,0.0117 0.01,0.0117 c 0.5264,0.5604 1.1064,1.05894 1.7148,1.51953 -0.3904,0.12724 -0.7748,0.26224 -1.1504,0.41016 -2.7622,1.08796 -5.1086,2.6047 -6.9551,4.55274 l -0.01,0.01 -0.01,0.01 c -1.814,1.96702 -3.1802,4.2921 -4.0742,6.91211 l -0.01,0.0195 -0.01,0.0176 c -0.8287,2.59073 -1.2343,5.37117 -1.2343,8.31243 l 0,5.49219 0.75,0.59765 c 0,0 1.9591,1.54608 5.5059,2.96485 3.5467,1.41877 8.8106,2.80859 15.7441,2.80859 6.9335,0 12.1954,-1.38982 15.7422,-2.80859 3.5468,-1.41877 5.5058,-2.96485 5.5058,-2.96485 l 0.752,-0.59765 0,-0.002 0,-5.49219 c 0,-2.94501 -0.4363,-5.73005 -1.3184,-8.32421 -0.8463,-2.63879 -2.2238,-4.98388 -4.0976,-6.95508 -0.7048,-0.74352 -1.4843,-1.42333 -2.3301,-2.04102 -0.9712,0.99951 -2.0529,1.89146 -3.2168,2.65821 1.0048,0.63057 1.8882,1.33708 2.6406,2.13085 l 0,0.002 0,0.002 c 1.4673,1.54277 2.521,3.32731 3.1953,5.43555 l 0.01,0.0176 0.01,0.0176 c 0.7348,2.15372 1.1094,4.49715 1.1094,7.05859 l 0,3.46875 c -0.6529,0.43102 -1.7089,1.05778 -3.7422,1.8711 -3.1198,1.24787 -7.8562,2.52338 -14.256,2.52338 -6.3998,0 -11.1381,-1.27551 -14.2578,-2.52343 -2.0332,-0.81332 -3.0893,-1.44008 -3.7422,-1.8711 l 0,-3.46875 c 0,-2.5664 0.3528,-4.91577 1.041,-7.07422 0.727,-2.12353 1.7915,-3.92527 3.2149,-5.4707 1.3964,-1.46917 3.203,-2.66012 5.5039,-3.5664 2.247,-0.88506 4.9861,-1.35938 8.2402,-1.35938 2.0021,0 3.9104,-0.35213 5.668,-1.07617 l 0.016,-0.008 0.018,-0.01 c 1.7402,-0.75461 3.2693,-1.83737 4.5254,-3.21289 1.2878,-1.3742 2.2808,-3.01465 2.9629,-4.86329 0.6936,-1.8798 1.0234,-3.94703 1.0234,-6.164057 0,-2.184815 -0.3313,-4.231746 -1.0215,-6.105474 -0.6812,-1.881686 -1.6732,-3.544778 -2.9687,-4.925781 -1.2558,-1.373757 -2.7892,-2.440325 -4.5313,-3.162079 -1.7622,-0.762498 -3.6807,-1.13868 -5.6914,-1.13868 z m 0,3.998048 c 1.5231,0 2.8707,0.275342 4.1094,0.812499 l 0.016,0.006 0.018,0.008 c 1.2447,0.512778 2.2671,1.228874 3.1387,2.185546 l 0.01,0.01 0.01,0.0117 c 0.9028,0.96094 1.6119,2.125939 2.1308,3.560551 l 0,0.006 0,0.006 c 0.5093,1.380374 0.7774,2.943815 0.7774,4.728519 0,1.82051 -0.2696,3.403007 -0.7774,4.779287 -0.5173,1.40201 -1.2256,2.55579 -2.1347,3.52345 l -0.01,0.0117 -0.01,0.0117 c -0.874,0.95933 -1.9071,1.69126 -3.1583,2.23632 -1.2412,0.50839 -2.5949,0.77332 -4.1231,0.77332 -1.5281,0 -2.8839,-0.26493 -4.125,-0.77344 -1.2506,-0.5447 -2.3025,-1.28259 -3.2129,-2.24805 -0.8792,-0.96757 -1.5798,-2.12632 -2.0996,-3.53515 -0.5078,-1.37628 -0.7773,-2.958787 -0.7773,-4.779297 0,-1.784704 0.268,-3.348145 0.7773,-4.728519 l 0,-0.006 0,-0.006 c 0.5213,-1.441209 1.2226,-2.609397 2.0957,-3.570317 0.9079,-0.962619 1.9497,-1.684923 3.1934,-2.197261 l 0.017,-0.008 0.016,-0.006 c 1.2386,-0.537077 2.5881,-0.812419 4.1112,-0.812419 z"
       style="color:#000000;font-style:normal;font-variant:normal;font-weight:normal;font-stretch:normal;font-size:medium;line-height:125%;font-family:Ubuntu;-inkscape-font-specification:'Ubuntu, Normal';text-indent:0;text-align:start;text-decoration:none;text-decoration-line:none;text-decoration-style:solid;text-decoration-color:#000000;letter-spacing:0px;word-spacing:0px;text-transform:none;direction:ltr;block-progression:tb;writing-mode:lr-tb;baseline-shift:baseline;text-anchor:start;white-space:normal;clip-rule:nonzero;display:inline;overflow:visible;visibility:visible;opacity:1;isolation:auto;mix-blend-mode:normal;color-interpolation:sRGB;color-interpolation-filters:linearRGB;solid-color:#000000;solid-opacity:1;fill:#808080;fill-opacity:1;fill-rule:nonzero;stroke:none;stroke-width:4.00000048;stroke-linecap:butt;stroke-linejoin:miter;stroke-miterlimit:4;stroke-dasharray:none;stroke-dashoffset:0;stroke-opacity:1;color-rendering:auto;image-rendering:auto;shape-rendering:auto;text-rendering:auto;enable-background:accumulate" />
    <rect
       y="-28.142887"
       x="78.505043"
       height="96"
       width="96"
       id="rect4782"
       style="color:#000000;display:inline;overflow:visible;visibility:visible;fill:none;stroke:none;stroke-width:4;marker:none;enable-background:accumulate"
       transform="matrix(0,1,-1,0,0,0)" />
    <rect
       style="color:#000000;display:inline;overflow:visible;visibility:visible;fill:none;stroke:none;stroke-width:4;marker:none;enable-background:accumulate"
       id="rect4782-8"
       width="96"
       height="96"
       x="80.504601"
       y="-132.14198"
       transform="matrix(0,1,-1,0,0,0)" />
    <path
       inkscape:connector-curvature="0"
       style="font-style:normal;font-variant:normal;font-weight:normal;font-stretch:normal;font-size:15px;line-height:125%;font-family:Ubuntu;-inkscape-font-specification:Ubuntu;text-align:center;letter-spacing:0px;word-spacing:0px;writing-mode:lr-tb;text-anchor:middle;fill:#808080;fill-opacity:1;stroke:none"
       d="m 108.53847,154.38741 c 0.0161,0.0215 0.0404,0.0354 0.0566,0.0567 0.0201,0.0253 0.0305,0.057 0.0508,0.0821 z"
       id="path4157" />
    <path
       inkscape:connector-curvature="0"
       style="font-style:normal;font-variant:normal;font-weight:normal;font-stretch:normal;font-size:15px;line-height:125%;font-family:Ubuntu;-inkscape-font-specification:Ubuntu;text-align:center;letter-spacing:0px;word-spacing:0px;writing-mode:lr-tb;text-anchor:middle;fill:#808080;fill-opacity:1;stroke:none"
       d="m 59.70253,154.40107 -0.10742,0.13868 c 0.0203,-0.0251 0.0307,-0.0569 0.0508,-0.0821 0.0162,-0.0214 0.0405,-0.0353 0.0566,-0.0567 z"
       id="path4344" />
    <g
       id="g4271"
       transform="matrix(0.45,0,0,0.45,-33.72143,92.677729)">
      <circle
         r="40"
         cy="128.50504"
         cx="84.142853"
         id="path4204"
         style="color:#000000;clip-rule:nonzero;display:inline;overflow:visible;visibility:visible;opacity:1;isolation:auto;mix-blend-mode:normal;color-interpolation:sRGB;color-interpolation-filters:linearRGB;solid-color:#000000;solid-opacity:1;fill:none;fill-opacity:1;fill-rule:evenodd;stroke:#808080;stroke-width:8.88888836;stroke-linecap:round;stroke-linejoin:round;stroke-miterlimit:4;stroke-dasharray:none;stroke-dashoffset:0;stroke-opacity:1;color-rendering:auto;image-rendering:auto;shape-rendering:auto;text-rendering:auto;enable-background:accumulate" />
      <path
         sodipodi:nodetypes="cc"
         inkscape:connector-curvature="0"
         id="path4269"
         d="M 55.857715,156.79172 112.42608,100.2223"
         style="opacity:1;fill:none;fill-rule:evenodd;stroke:#808080;stroke-width:8.88888836;stroke-linecap:butt;stroke-linejoin:miter;stroke-miterlimit:4;stroke-dasharray:none;stroke-opacity:1" />
    </g>
  </g>
</svg>
